<svg xmlns="http://www.w3.org/2000/svg" aria-hidden="true" role="img" viewBox="0 0 636.896 637.479" fill="#97ce4c">
  <path d="M400.677 718.478c-176.723.183-320.34-144.04-318.771-321.777 1.529-173.213 142.891-316.197 319.33-315.7 175.922.496 316.958 143.117 317.55 317.52.605 177.823-143.226 319.987-318.11 319.957Zm296.132-311.571a324.48 324.48 0 0 0-2.394-48.002c-3.653-27.326-10.108-53.9-21.005-79.157a298.133 298.133 0 0 0-47.548-76.146c-23.295-27.22-50.855-48.995-81.75-66.666a301.314 301.314 0 0 0-88.4-32.16c-14.294-2.803-28.823-4.18-43.361-5.25-16.475-1.213-32.771.533-49.06 2.745-21.01 2.854-41.695 6.901-61.69 14.275a318.248 318.248 0 0 0-54.178 25.604 305.883 305.883 0 0 0-67.067 54.904 289.4 289.4 0 0 0-60.163 99.758 278.358 278.358 0 0 0-14.05 57.285c-2.722 20.348-2.853 40.826-2.12 61.291a236.794 236.794 0 0 0 5.736 42.536 298.926 298.926 0 0 0 13.331 44.933c9.595 24.452 21.424 47.631 37.251 68.664 3.006 3.995 6.255 7.81 9.46 11.651 1.116 1.34 2.63 2.29 3.872.282a19.317 19.317 0 0 0 2.476-5.647c2.292-9.9 5.725-19.458 8.564-29.191 4.348-14.905 10.137-29.365 13.969-44.418a12.76 12.76 0 0 1 7.138-9.038c7.235-3.644 14.944-6.08 22.39-9.179 11.39-4.74 22.828-9.361 33.977-14.66 2.825-1.344 4.425-3.33 4.331-6.571-.098-3.4-1.007-6.204-4.538-7.57-3.18-1.228-6.135-2.95-9.352-4.152-5.413-2.023-10.424-4.797-14.268-9.318A82.058 82.058 0 0 1 222 412.041a215.99 215.99 0 0 1-7.65-46.612c-.081-1.558-.035-3.764-2.155-3.581-1.933.166-1.31 2.337-1.293 3.695a162.248 162.248 0 0 0 3.564 30.227 141.207 141.207 0 0 0 4.28 17.423 158.41 158.41 0 0 0 12.48 27.92c1.258 2.198.894 3.653-1.085 4.926a42.22 42.22 0 0 1-8.153 4.105c-3.894 1.448-5.002.899-5.373-3.233-.372-4.142-.677-8.302-.738-12.458-.122-8.339-.797-8.991-9.21-7.894-6.188.806-12.358 1.802-18.567 2.378-3.849.356-4.581-.847-3.589-4.563 2.393-8.958 4.668-17.95 7.214-26.864.918-3.214-.125-4.802-3.063-5.847-7.824-2.786-15.802-5.024-23.797-7.262-8.45-2.365-7.891-3.148-3.092-8.662a191.582 191.582 0 0 1 23.245-22.873c3.542-2.891 3.91-4.617 1.526-7.728-5.148-6.716-11.415-12.049-19.535-14.938-6.587-2.343-13.482-3.505-20.196-5.358-1.05-.29-2.365-.355-2.622-1.65-.24-1.21 1.058-1.522 1.779-2.08 3.478-2.694 6.927-5.437 10.532-7.954 8.42-5.878 17.327-11.052 25.334-17.527 5.654-4.573 5.89-5.966 2.172-12.17-1.191-1.988-2.215-4.083-3.499-6.006-6.097-9.13-14.312-16.334-21.98-24.036-.578-.581-1.736-.878-1.518-1.89.26-1.198 1.578-.925 2.442-1.263a6.484 6.484 0 0 1 1.44-.281c12.359-1.767 24.734-3.376 37.17-4.541 4.865-.456 9.676-1.482 14.518-2.21 3.555-.535 4.594-2.884 4.281-6.05a70.016 70.016 0 0 0-1.467-9.787 137.563 137.563 0 0 0-7.626-21.759c-2.244-5.212-1.69-5.863 3.897-5.187q.548.066 1.09.167a147.823 147.823 0 0 1 33.245 10.123c2.637 1.168 4.187.763 5.7-1.82a60.072 60.072 0 0 0 6.158-14.453c2.49-9.08 4.582-18.268 6.867-27.404.833-3.329 1.593-3.584 4.387-1.518a40.101 40.101 0 0 1 6.493 5.886c6.343 7.296 12.614 14.656 19.061 21.858 5.66 6.321 5.948 6.234 11.827.275 11.59-11.748 24.364-21.847 39.601-28.557 2.51-1.105 3.684-1.15 3.79 2.187.252 7.956.836 15.902 1.313 23.85a97.5 97.5 0 0 0 3.614 20.57c.75 2.671 2.243 3.494 4.946 2.613 6.857-2.234 13.623-4.698 20.346-7.31a160.944 160.944 0 0 1 18.34-6.407c.898-.23 2.088-.708 2.78.155.762.95-.273 1.792-.722 2.601-2.253 4.059-4.36 8.212-6.841 12.127-4.842 7.637-9.688 15.265-14.103 23.164-2.645 4.732-2.358 5.724 2.85 6.328 5.348.62 10.747.787 16.114 1.257 7.44.651 14.873 1.382 22.305 2.118 2.706.268 3.68 1.314 1.443 3.624-1.192 1.231-2.297 2.546-3.496 3.77q-12.58 12.844-25.178 25.672c-2.9 2.966-2.745 4.147 1.112 5.762 3.6 1.508 7.354 2.652 11.049 3.934 6.788 2.356 13.81 4.045 20.365 7.059 3.505 1.61 3.59 2.546.602 5.06-6.222 5.235-13.286 9.163-20.538 12.682-8.112 3.936-16.513 7.275-24.635 11.19-4.831 2.33-4.74 3.612-.631 6.898 6.65 5.318 14.589 8.4 21.807 12.726 7.34 4.4 7.435 5.381-.122 9.353-7.226 3.797-14.695 7.138-22.083 10.624-3.187 1.503-4.288 3.613-2.919 7.082 1.886 4.779 3.4 9.703 5.248 14.498 1.229 3.185.17 4.987-2.96 5.716-4.049.945-8.138 1.718-12.19 2.648-6.272 1.439-7.761 5.22-3.938 10.435a106.234 106.234 0 0 0 7.122 8.371c1.615 1.781 1.39 3.376-.322 4.709a14.506 14.506 0 0 1-5.687 3.113c-8.828 2.048-16.856 5.377-20.468 14.752a5.675 5.675 0 0 1-.897 1.145c-4.825 6.45-11.409 10.588-18.498 14.049-5.508 2.689-8.45 10.083-6.212 15.743a3.732 3.732 0 0 0 2.322 2.207c2.415.858 4.824 1.736 7.259 2.534 12.72 4.163 25.9 6.376 39.008 8.762 6.496 1.183 10.523 3.274 12.21 10.551 3.165 13.662 7.734 26.993 11.523 40.517 3.396 12.125 6.545 24.32 9.773 36.49 3.95 14.89 7.921 29.774 11.787 44.686 5.619 21.67 10.445 43.522 14.868 65.464.278 1.38.582 2.867 2.38 2.634 1.652-.214 1.426-1.767 1.461-2.941a396.8 396.8 0 0 1 7.658-65.18 176.875 176.875 0 0 1 14.749-43.632c1.407-2.877 3.698-4.192 6.924-3.234 2.93.87 5.827 1.85 8.745 2.76 9.673 3.02 19.262 6.4 29.519 6.934 1.049.054 2.441.58 2.788-.916.366-1.581-1.054-1.612-2.122-1.833a146.435 146.435 0 0 1-32.136-11.043 101.467 101.467 0 0 1-38.19-30.104c-5.94-7.67-10.693-16.031-15.516-24.38-.437-.757-.544-2.252-1.873-1.78-1.392.496-.892 1.9-.627 2.885.57 2.12 1.42 4.164 2.006 6.281.511 1.847.494 3.622-2.195 3.394a28.233 28.233 0 0 1-10.907-2.944c-11.277-5.924-15.583-27.184-5.302-34.877a16.548 16.548 0 0 0 2.59-3.067c1.688-2.1 2.22-4.147.49-6.657-2.284-3.313-4.047-6.99-6.371-10.271-8.448-11.923-8.844-24.657-4.369-38.059 2.827-8.466 5.248-16.939 5.165-26.121a37.6 37.6 0 0 1 4.448-17.638c5.286-9.889 12.214-18.805 18.9-27.83 19.338-26.104 45.953-38.492 77.608-41.697 16.244-1.645 32.3-.225 48.303 2.356 9.183 1.48 18.363 3.123 26.957 6.887 6.844 2.997 12.945 7.305 19.186 11.351 13.916 9.021 23.228 21.731 29.524 36.86 6.238 14.987 9.078 30.904 12.694 46.6 2.93 12.72 6.722 25.406 3.75 38.705-1.464 6.555-.051 11.934 4.763 17.014 10.076 10.634 5.264 30.734-8.97 36.566-5.46 2.237-8.425 5.87-10.358 10.995-3.822 10.137-9.423 19.017-18.125 25.755a73.84 73.84 0 0 0-6.171 5.76c-7.978 7.797-6.188 6.024-1.314 14.025 6.922 11.361 14.54 22.333 17.51 35.646.82 3.679 1.928 3.826 4.882 1.205 13.786-12.23 24.432-27.065 33.917-42.615 16.425-26.929 29.45-55.397 37.457-86.106 5.56-21.324 9.204-42.817 9.43-64.868ZM467.483 480.85a29.17 29.17 0 0 0 13.441-2.48c14.635-7.019 23.76-18.125 24.542-34.913.615-13.195-1.939-25.347-12.236-34.736-2.948-2.688-4.74-2.37-6.137 1.362a24.093 24.093 0 0 1-6.723 9.888c-6.882 6.052-15.336 8.295-24.025 9.808-8.674 1.51-17.413 2.644-26.102 4.068-3.34.547-5.137 2.476-4.78 6.157.52 5.375 1.06 10.77 2.936 15.843 5.695 15.394 20.59 25.16 39.084 25.003Zm99.086-7.144c13.722.62 22.493-5.808 29.062-12.677 7.42-7.76 9.537-17.546 8.379-28.182-.922-8.468-1.125-8.896-9.466-8.602-12.143.428-24.257.296-36.274-1.724a37.84 37.84 0 0 1-14.62-5.497 22.498 22.498 0 0 1-7.373-8.432c-1.731-3.171-3.657-3.51-5.64-1.1-8.771 10.662-13.087 29.72-4.331 43.66 9.276 14.77 22.905 22.111 40.263 22.554ZM259.82 279.759c-19.542-.095-32.557 14.921-29.766 34.34.487 3.385 2.002 4.552 5.227 3.792a71.252 71.252 0 0 1 14.52-1.84q13.747-.363 27.494-.69c3.246-.076 6.156-.64 7.093-4.386 2.574-10.29-.858-24.38-12.052-28.905a29.998 29.998 0 0 0-12.516-2.311Zm60.847 29.762c8.085.473 16.141.901 24.177 1.889 6.818.838 7.303.371 8.843-6.384 1.332-5.841.377-8.15-4.513-11.51-4.643-3.19-9.957-4.766-15.31-5.891-7.771-1.633-15.657-2.872-23.626-.961-7.76 1.86-13.31 9.24-12.664 17.02.277 3.326 1.355 5.935 5.476 5.863 5.87-.103 11.744-.026 17.617-.026Zm52.523 262.757a61.198 61.198 0 0 0-3.814-14.127c-4.081-9.376-7.854-18.887-11.994-28.237-7.513-16.968-15.586-33.644-26.61-48.71-.919-1.256-1.92-2.849-3.293-1.891-1.203.839.139 2.497.81 3.517 8.62 13.085 15.329 27.188 21.819 41.378 5.422 11.855 10.251 23.98 15.554 35.89 4.407 9.898 3.1 18.228-5.168 25.71-5.234 4.738-9.734 10.3-14.45 15.593-4.65 5.219-4.628 6.945.208 12.08 6.203 6.585 12.593 12.994 18.772 19.602 3.316 3.546 6.993 6.901 8.518 11.752.483 1.535.793 3.62 2.74 3.22 1.804-.37 1.66-2.542 1.558-4.099-.217-3.299-2.58-5.477-4.546-7.765-7.486-8.717-15.975-16.515-23.289-25.406-1.911-2.324-2.013-3.893-.224-6.365 5.545-7.662 12.079-14.43 18.491-21.32a19.331 19.331 0 0 0 4.918-10.822Zm-117.957-84.579c-1.554.391-2.052 1.823-2.58 2.938-2.75 5.822-5.434 11.68-7.954 17.605-6 14.108-12.176 28.143-17.249 42.633-2.57 7.343-5.66 14.504-8.276 21.834-2.647 7.422-1.534 13.83 4.534 19.643 5.627 5.39 11.41 10.701 16.323 16.826 2.525 3.146 2.283 6.244.261 9.43-.783 1.234-1.811 2.328-2.476 3.616-.47.913-1.033 2.17.125 3.006 1.034.746 1.861-.116 2.524-.819 2.098-2.222 4.253-4.403 6.183-6.765 2.29-2.801 2.345-5.794.083-8.713a41.15 41.15 0 0 0-5.704-6.17c-4.918-4.21-10.045-8.192-14.293-13.142-4.117-4.796-5.578-9.92-3.628-16.266 1.766-5.748 4.535-11.057 6.377-16.747 5.783-17.867 13.16-35.1 20.84-52.214q2.91-6.486 5.588-13.076c.496-1.219.755-2.629-.678-3.619Zm76.907 87.546c.042-6.379-.821-12.703-1.145-19.057a428.821 428.821 0 0 0-4.463-46.733c-.834-5.151-1.575-10.391-3.413-15.347-.28-.755-.407-1.915-1.533-1.714-1.128.201-.837 1.326-.84 2.137-.009 3.205 1.072 6.27 1.405 9.392 1.415 13.255 2.71 26.531 3.65 39.827q1.476 20.871 3.575 41.68c.128 1.263-.05 3.317 1.583 3.182 1.55-.128 1.13-2.177 1.158-3.454.07-3.303.023-6.609.023-9.913Zm-76.379-2.241c0 3.794-.048 7.589.03 11.38.023 1.126-.254 2.962 1.292 2.944 1.407-.017 1.252-1.824 1.41-3 .08-.606.068-1.222.116-1.832.553-7.071 1.094-14.144 1.668-21.213 1.246-15.366 2.508-30.733 3.03-46.143.07-2.021 1.071-5.624-1.151-5.751-2.284-.13-2.236 3.543-2.467 5.762-2.011 19.234-2.79 38.552-3.928 57.853Z" transform="translate(-81.893 -81)" />
</svg>
